inDegrees=no
num_controls=7
num_derivatives=13
num_iterations=124
num_multipliers=7
num_parameters=0
num_slacks=7
num_states=26
objective=0.444655
objective_accelerations=0.058001
objective_balance=0.003649
objective_effort=0.023370
objective_height=0.354136
objective_ligament=0.005499
solver_duration=1810.640314
status=Solve_Succeeded
success=true
DataType=double
version=3
OpenSimVersion=4.5
endheader
time	/jointset/ground_pelvis/pelvis_tilt/value	/jointset/ground_pelvis/pelvis_tx/value	/jointset/ground_pelvis/pelvis_ty/value	/jointset/hip_l/hip_flexion_l/value	/jointset/hip_l/hip_adduction_l/value	/jointset/hip_l/hip_rotation_l/value	/jointset/back/lumbar_extension/value	/jointset/patellofemoral_l/patellar_flexion_l/value	/jointset/knee_l/knee_flexion_l/value	/jointset/knee_l/knee_adduction_l/value	/jointset/knee_l/knee_rotation_l/value	/jointset/ankle_l/ankle_angle_l/value	/jointset/subtalar_l/subtalar_angle_l/value	/jointset/ground_pelvis/pelvis_tilt/speed	/jointset/ground_pelvis/pelvis_tx/speed	/jointset/ground_pelvis/pelvis_ty/speed	/jointset/hip_l/hip_flexion_l/speed	/jointset/hip_l/hip_adduction_l/speed	/jointset/hip_l/hip_rotation_l/speed	/jointset/back/lumbar_extension/speed	/jointset/patellofemoral_l/patellar_flexion_l/speed	/jointset/knee_l/knee_flexion_l/speed	/jointset/knee_l/knee_adduction_l/speed	/jointset/knee_l/knee_rotation_l/speed	/jointset/ankle_l/ankle_angle_l/speed	/jointset/subtalar_l/subtalar_angle_l/speed	/forceset/tau_hip_flexion_l	/forceset/tau_hip_adduction_l	/forceset/tau_hip_rotation_l	/forceset/tau_knee_flexion_l	/forceset/tau_ankle_angle_l	/forceset/tau_subtalar_angle_l	/forceset/tau_lumbar_extension	lambda_cid13_p0	lambda_cid13_p1	lambda_cid13_p2	lambda_cid13_p3	lambda_cid13_p4	lambda_cid13_p5	lambda_cid14_p0	/jointset/ground_pelvis/pelvis_tilt/accel	/jointset/ground_pelvis/pelvis_tx/accel	/jointset/ground_pelvis/pelvis_ty/accel	/jointset/hip_l/hip_flexion_l/accel	/jointset/hip_l/hip_adduction_l/accel	/jointset/hip_l/hip_rotation_l/accel	/jointset/back/lumbar_extension/accel	/jointset/patellofemoral_l/patellar_flexion_l/accel	/jointset/knee_l/knee_flexion_l/accel	/jointset/knee_l/knee_adduction_l/accel	/jointset/knee_l/knee_rotation_l/accel	/jointset/ankle_l/ankle_angle_l/accel	/jointset/subtalar_l/subtalar_angle_l/accel	gamma_cid13_p0	gamma_cid13_p1	gamma_cid13_p2	gamma_cid13_p3	gamma_cid13_p4	gamma_cid13_p5	gamma_cid14_p0
1	-0.5569067285671966	-0.0852831852173218	0.5674477061669582	1.86263229304117	-0.4668220333617332	0.01736153516645332	-0.2617788012938521	1.397101009531337	1.397101009530248	-0.08050819823275679	-0.1745184953060352	0.2146427659848643	-0.01259026519316658	-0.01682669458491161	0.01094564116664997	0.002494525530861271	-0.001871153044627734	-0.002463270494069424	0.003562733692460951	-4.240856395124179e-05	0.002845074607774377	0.002845074607774006	-0.004739952316047826	-0.0001814019927410738	0.02162868293442511	0.009410235652211543	-0.3389127111953577	0.01085091396011318	0.0004818270523844879	-0.3043445701120613	0.04146934576786099	0.03134206475172398	0.2882587758605458	-26.74219443743951	-9.601122750806669	1.961925588223468	7.530016129305491	-644.4890659770059	-47.65040830863185	-1.168463342012651	1.541097613643558	0.2422598254843841	2.003516990755275	-6.927573029143282	-0.09788330927977784	-2.349217917889872	-0.01817340453209592	-5.331740074219062	-5.331740074219169	-0.6236004796070582	-0.03389719939104604	-0.6289786840535636	-0.4548328169167891	5.081172890102165e-09	1.972968098929149e-08	-1.491959223638684e-08	3.554074426813956e-09	-1.4392397799715e-09	2.22554456128487e-08	3.085660817307244e-09
1.01	-0.55699891525531	-0.08516167088868747	0.5675726821720531	1.862268526902534	-0.4668504840261631	0.01727855940588654	-0.2617791014035005	1.396862972756544	1.396862972755454	-0.08058397778565278	-0.1745206069059016	0.2148277703769969	-0.01251741955315103	-0.001612306654018757	0.01335981417919658	0.02249691171373748	-0.07087186310945454	-0.003219369255049474	-0.02015097729819084	-1.692606667547223e-05	-0.05045150514540436	-0.05045150514540594	-0.01041364261450942	-0.0002319796740418402	0.01536629013182467	0.005164612460925901	-0.3387804238663291	0.01093729739311399	0.0004669939947793552	-0.3042403841213053	0.04137548231617858	0.03136014769736443	0.2881623670476764	-26.75940393863432	-9.610538809388997	1.968653503270309	7.445948651466579	-644.3483877400139	-47.66882469100533	-1.172961226034101	1.511358649363298	0.241385280195502	1.99803250144901	-6.88478968904635	-0.06334994259968002	-2.381416871392413	0.01301217162349293	-5.328476388717656	-5.328476388717818	-0.5389091606831286	0.0107104754549315	-0.6257547536660839	-0.4085739439613405	-3.165233068248787e-09	1.085350747207828e-08	2.665182795491214e-08	3.986849630929627e-09	-1.171840092242624e-08	7.485203573841964e-08	-9.245726783978237e-09
1.02	-0.556939008210804	-0.08501593698171649	0.5678975686528559	1.861215059724473	-0.4668862710348213	0.01695865269905975	-0.2617791260692258	1.39609199829165	1.396091998290557	-0.0807164254126822	-0.174522954576945	0.2149499738060425	-0.01248685951979374	0.01359205193891963	0.01578955683397808	0.04247662067241789	-0.1398113609300405	-0.003930539339729542	-0.04382345555842671	1.268022124207961e-05	-0.1037424634125986	-0.1037424634126029	-0.01607356714166868	-0.0002286162371637004	0.00906849031711188	0.0009531143205630853	-0.3386481365372897	0.01102368082610295	0.000452160937119988	-0.304136198130552	0.04128161886449062	0.03137823064298736	0.288065958234821	-26.78225578896107	-9.618854825753287	1.975078055047525	7.38346845913729	-644.2870545124687	-47.6648791114497	-1.187032801351976	1.539091746052675	0.2453737539313496	1.998981545916116	-6.915330580295099	-0.0888975740197412	-2.340971371806648	-0.01734864640378809	-5.330615777022186	-5.330615777022589	-0.6208473253465746	-0.0231089757551893	-0.6360600864760497	-0.4480078067321821	-1.142072927867775e-08	2.069705495997132e-09	6.816546547397819e-08	4.681220013456011e-09	-2.185061870645652e-08	1.270908442298713e-07	-2.146457562740588e-08
1.03	-0.5567270499032249	-0.08484579702899263	0.5684220643598191	1.859472635299227	-0.4669288601481159	0.01640232255724784	-0.2617788511110266	1.394788220384609	1.394788220384827	-0.08090536798132715	-0.1745249502502483	0.2150089364458049	-0.01249818222150127	0.02880297577279633	0.0182440056312509	0.0624113246261077	-0.2086494957469284	-0.004570303575640839	-0.06742551352540523	4.205454541531618e-05	-0.1570046747537024	-0.1570046747537029	-0.02170822518987213	-0.0001548558413535721	0.0027097610414531	-0.003204464367457758	-0.3382358190798566	0.01117598165714175	0.0004053225906382398	-0.3038801769979528	0.04122289385372316	0.03147147328284099	0.2877794906836441	-26.77401850672296	-9.673201892972763	1.997917063643618	7.262250948419235	-643.9344324302017	-47.73262994823629	-1.210886664805606	1.512594032027022	0.2463173105008171	1.989028948324007	-6.864454901350306	-0.04897817947823487	-2.367284870503264	0.01304194069944786	-5.322750515946846	-5.322750515946	-0.533779474421772	0.02499622354253294	-0.6379206433892266	-0.3976661922405134	-1.967631824678097e-08	-6.713153913337766e-09	1.096785133739398e-07	5.378259734537607e-09	-3.198133706846207e-08	1.793260018883218e-07	-3.368227611616151e-08
